<svg width="25" height="24" viewBox="0 0 25 24" fill="none" xmlns="http://www.w3.org/2000/svg">
<path fill-rule="evenodd" clip-rule="evenodd" d="M4.57163 2.58579C3.98584 3.17157 3.98584 4.11438 3.98584 6V16C3.98584 18.8284 3.98584 20.2426 4.86452 21.1213C5.50538 21.7622 6.43112 21.9356 7.98264 21.9826V19C7.98264 18.4477 8.43035 18 8.98264 18C9.53492 18 9.98264 18.4477 9.98264 19V22C9.98371 22 9.98478 22 9.98584 22H15.9743C15.9754 22 15.9764 22 15.9775 22L15.9775 19C15.9775 18.4477 16.4252 18 16.9775 18C17.5298 18 17.9775 18.4477 17.9775 19V21.9826C19.529 21.9356 20.4548 21.7622 21.0956 21.1213C21.9743 20.2426 21.9743 18.8284 21.9743 16V6C21.9743 4.11438 21.9743 3.17157 21.3885 2.58579C20.8027 2 19.8599 2 17.9743 2H7.98584C6.10022 2 5.15741 2 4.57163 2.58579ZM8.98264 8C8.43035 8 7.98264 8.44772 7.98264 9C7.98264 9.55228 8.43035 10 8.98264 10H16.9775C17.5298 10 17.9775 9.55228 17.9775 9C17.9775 8.44772 17.5298 8 16.9775 8H8.98264ZM8.98264 14L16.9775 14C17.5298 14 17.9775 13.5523 17.9775 13C17.9775 12.4477 17.5298 12 16.9775 12L8.98264 12C8.43035 12 7.98264 12.4477 7.98264 13C7.98264 13.5523 8.43035 14 8.98264 14Z" fill="white"/>
</svg>
