<svg width="923" height="1023" viewBox="0 0 923 1023" fill="none" xmlns="http://www.w3.org/2000/svg">
<path d="M107.625 161.739C108.204 159.264 109.202 156.908 110.576 154.77C112.176 152.282 114.256 150.137 116.693 148.461L121 145.5C126.917 142.542 133.447 141.018 140.062 141.053L390.682 142.372C404.092 142.443 415 131.592 415 118.182C415 113.495 413.639 108.909 411.081 104.982L405.711 96.7348C402.588 91.9386 400.201 86.7019 398.628 81.1988L396.935 75.2729C395.656 70.7947 395.198 66.1217 395.585 61.4805C395.861 58.174 396.562 54.9169 397.671 51.79L398.639 49.063C400.537 43.7139 403.174 38.6567 406.473 34.038L409.056 30.421C418.548 17.1321 433.337 8.61297 449.595 7.06851C486.88 3.52639 517.188 36.6595 510.346 73.4826L461.866 334.386C459.627 346.437 458.5 358.667 458.5 370.924V706L458.03 862.002C458.011 868.434 460.396 874.641 464.718 879.405C484.949 901.703 456.294 934.179 430.938 917.943C426.444 915.065 422.916 910.85 420.896 905.911L418.449 899.932C416.172 894.364 415 888.406 415 882.39V597.5V201.5L188.5 200L313.306 564.927C317.692 577.753 318.65 591.502 316.085 604.812C313.412 618.675 307.015 631.55 297.581 642.054L286.537 654.35C271.414 671.189 252.363 684.028 231.079 691.727L227.652 692.966C220.228 695.651 212.607 697.753 204.857 699.253L201.993 699.808C180.82 703.906 159.102 704.354 137.778 701.132L114.068 697.55C105.043 696.186 96.1665 693.973 87.5573 690.941L86.4942 690.566C66.7496 683.611 48.8159 672.316 34.0134 657.513L30.2949 653.795C23.4657 646.966 17.6323 639.209 12.9668 630.752L9.52624 624.516C5.8716 617.892 3.43222 610.667 2.32353 603.184C0.798009 592.887 1.83188 582.372 5.33383 572.569L136.028 206.718C137.72 201.982 134.209 197 129.18 197C128.398 197 127.622 196.874 126.88 196.627L121.639 194.88C118.903 193.968 116.361 192.557 114.139 190.719C107.315 185.071 104.276 176.046 106.295 167.421L107.625 161.739Z" fill="#D9D9D9"/>
<path d="M809.375 163.239C808.796 160.764 807.798 158.408 806.424 156.27C804.824 153.782 802.744 151.637 800.307 149.961L796 147C790.083 144.042 783.553 142.518 776.938 142.553L526.318 143.872C512.908 143.943 502 133.092 502 119.682C502 114.995 503.361 110.409 505.919 106.482L511.289 98.2348C514.412 93.4386 516.799 88.2019 518.372 82.6988L520.065 76.7729C521.344 72.2947 521.802 67.6217 521.415 62.9805C521.139 59.674 520.438 56.4169 519.329 53.29L518.361 50.563C516.463 45.2139 513.826 40.1567 510.527 35.538L507.374 31.1238C498.24 18.3354 484.029 10.1123 468.39 8.56463C432.511 5.01412 403.133 36.6536 409.33 72.1712L455.524 336.942C457.504 348.293 458.5 359.794 458.5 371.316V707.5L458.967 862.704C458.988 869.598 456.183 876.199 451.205 880.969C430.259 901.039 454.251 934.784 480.088 921.593L484.441 919.37C489.963 916.551 494.291 911.844 496.639 906.105L498.882 900.622C500.941 895.589 502 890.203 502 884.765V599V203L728.5 201.5L603.694 566.427C599.308 579.253 598.35 593.002 600.915 606.312C603.588 620.175 609.985 633.05 619.419 643.554L630.463 655.85C645.586 672.689 664.637 685.528 685.921 693.227L689.348 694.466C696.772 697.151 704.393 699.253 712.143 700.753L715.007 701.308C736.18 705.406 757.898 705.854 779.222 702.632L802.932 699.05C811.957 697.686 820.833 695.473 829.443 692.441L830.506 692.066C850.25 685.111 868.184 673.816 882.987 659.013L886.705 655.295C893.534 648.466 899.368 640.709 904.033 632.252L907.474 626.016C911.128 619.392 913.568 612.167 914.676 604.684C916.202 594.387 915.168 583.872 911.666 574.069L780.972 208.218C779.28 203.482 782.791 198.5 787.82 198.5C788.602 198.5 789.378 198.374 790.12 198.127L795.361 196.38C798.097 195.468 800.639 194.057 802.861 192.219C809.685 186.571 812.724 177.546 810.705 168.921L809.375 163.239Z" fill="#D9D9D9"/>
<ellipse cx="458" cy="889.5" rx="40" ry="38" fill="#D9D9D9"/>
<path d="M191.596 529.064C192.872 528.497 194.342 527.748 195.589 526.714C211.662 534.953 225.224 539.807 237.505 544.203C242.214 545.888 246.734 547.506 251.135 549.221C268.618 556.035 285.273 564.69 306.973 586.055C306.242 614.095 290.585 639.813 265.021 658.831C238.837 678.31 202.531 690.5 162.5 690.5C122.471 690.5 86.4243 678.312 60.4968 658.844C35.2527 639.89 19.826 614.255 19.0322 586.272C31.9854 575.483 50.3525 566.832 70.7298 559.771C91.9482 552.419 114.898 546.938 135.307 542.511C141.264 541.219 147.039 540.011 152.499 538.868C165.548 536.137 176.799 533.782 184.423 531.567C187.164 530.771 189.611 529.945 191.596 529.064Z" fill="#DA1F14" stroke="#FEC01A" stroke-width="10"/>
<path d="M782.596 529.064C783.871 528.498 785.339 527.75 786.585 526.717C802.525 534.905 815.897 539.75 827.971 544.125C832.692 545.836 837.214 547.474 841.614 549.213C858.847 556.021 875.269 564.675 896.974 586.055C896.254 614.123 880.812 639.841 855.503 658.844C829.576 678.312 793.529 690.5 753.5 690.5C713.471 690.5 677.424 678.312 651.497 658.844C626.253 639.89 610.826 614.255 610.032 586.272C622.985 575.483 641.353 566.832 661.73 559.771C682.948 552.419 705.898 546.938 726.307 542.511C732.264 541.219 738.039 540.011 743.499 538.868C756.548 536.137 767.799 533.782 775.423 531.567C778.164 530.771 780.611 529.945 782.596 529.064Z" fill="#DA1F14" stroke="#FEC01A" stroke-width="10"/>
<rect x="426.5" y="66" width="64" height="850" rx="32" fill="#EBEEF5" stroke="#132145"/>
<rect x="795.689" y="153.982" width="33.0157" height="680.329" rx="16.5078" transform="rotate(90.3232 795.689 153.982)" fill="#EBEEF5" stroke="#132145"/>
<path d="M233.471 379.79L300.098 576.25H25.9996L163.093 182.106L233.471 379.79Z" fill="#132145" stroke="#EBEEF5" stroke-width="17"/>
<path d="M614 576.25L751 182.374L888 576.25H614Z" fill="#132145" stroke="#EBEEF5" stroke-width="17"/>
<circle cx="458" cy="65.5" r="49.5" fill="#EBEEF5" stroke="#132145"/>
</svg>
