<svg width="30" height="24" viewBox="0 0 30 24" fill="none" xmlns="http://www.w3.org/2000/svg">
<path d="M20.9871 21H8.74049C3.84185 21 2.61719 20 2.61719 16V8C2.61719 4 3.84185 3 8.74049 3H20.9871C25.8857 3 27.1104 4 27.1104 8V16C27.1104 20 25.8857 21 20.9871 21Z" stroke="white" stroke-width="1.5" stroke-linecap="round" stroke-linejoin="round"/>
<path d="M17.3125 8H23.4358" stroke="white" stroke-width="1.5" stroke-linecap="round" stroke-linejoin="round"/>
<path d="M18.5371 12H23.4358" stroke="white" stroke-width="1.5" stroke-linecap="round" stroke-linejoin="round"/>
<path d="M20.9863 16H23.4357" stroke="white" stroke-width="1.5" stroke-linecap="round" stroke-linejoin="round"/>
<path d="M10.578 11.2899C11.8022 11.2899 12.7946 10.4796 12.7946 9.47992C12.7946 8.48029 11.8022 7.66992 10.578 7.66992C9.35375 7.66992 8.36133 8.48029 8.36133 9.47992C8.36133 10.4796 9.35375 11.2899 10.578 11.2899Z" stroke="white" stroke-width="1.5" stroke-linecap="round" stroke-linejoin="round"/>
<path d="M14.8636 16.3298C14.6922 14.8798 13.2838 13.7398 11.5081 13.6098C10.8957 13.5598 10.2712 13.5598 9.64659 13.6098C7.87083 13.7498 6.46247 14.8798 6.29102 16.3298" stroke="white" stroke-width="1.5" stroke-linecap="round" stroke-linejoin="round"/>
</svg>
